<?xml version="1.0" encoding="UTF-8"?>
<svg id="Layer_3" data-name="Layer 3" xmlns="http://www.w3.org/2000/svg" viewBox="0 0 569.08 434.93">
  <defs>
    <style>
      .cls-1 {
        fill: #fff;
        stroke-width: 0px;
      }
    </style>
  </defs>
  <path class="cls-1" d="M528.23,194.46c-4.69-50.33-24.61-96.23-55.11-133.05l28.88-28.88L469.47,0l-28.88,28.88c-2.26-1.88-4.57-3.7-6.9-5.5l-62.29,8.59c63.06,29.58,108.56,90.37,116.62,162.48h-180.48V12.01h-46v269.55L121.26,93.88c1.03-1.36,2.07-2.7,3.14-4.03l.05.05,32.53-32.53-.05-.05c12.46-9.94,26.12-18.46,40.7-25.31h-3.97l-58.59-8.39c-2.23,1.72-4.43,3.46-6.59,5.26L99.6,0l-32.53,32.53,28.88,28.88c-30.5,36.82-50.42,82.73-55.11,133.05H0v46h40.85c4.69,50.33,24.61,96.23,55.11,133.05l-28.88,28.88,32.53,32.53,28.88-28.88c2.18,1.81,4.41,3.57,6.66,5.31l61.18-8.44h1.3c-69.63-32.69-117.85-103.43-117.85-185.45,0-28.52,5.84-55.68,16.38-80.36l165.4,221.3v64.51h46v-182.45h180.48c-8.06,72.08-53.53,132.85-116.54,162.45h2.32l59.95,8.58c2.31-1.78,4.6-3.59,6.84-5.45l28.88,28.88,32.53-32.53-28.88-28.88c30.5-36.82,50.42-82.73,55.11-133.05h40.85v-46h-40.85Z"/>
</svg>